<svg preserveAspectRatio="none" overflow="visible" style="display: block;" width="66" height="10" viewBox="0 0 66 10" fill="none" xmlns="http://www.w3.org/2000/svg">
<g id="Frame">
<path id="Vector" d="M9.96631 3.74979C9.88523 3.48838 9.67014 3.29901 9.41097 3.25935L6.78646 2.85961L5.61263 0.369405C5.38099 -0.123135 4.61204 -0.123135 4.3804 0.369405L3.20658 2.85961L0.588283 3.25935C0.329226 3.2989 0.114136 3.48904 0.0336882 3.74979C-0.0473923 4.01119 0.0206141 4.29713 0.208291 4.48793L2.10646 6.42152L1.65909 9.15811C1.61513 9.42813 1.72098 9.7018 1.93259 9.86311C2.14494 10.0238 2.4253 10.0446 2.65694 9.91714L4.99625 8.62447L7.34253 9.91714C7.4429 9.9726 7.55287 10 7.6621 10C7.80434 10 7.94657 9.95393 8.06761 9.86322C8.27933 9.70114 8.38508 9.42824 8.34111 9.15822L7.89375 6.42163L9.79192 4.48804C9.97938 4.29779 10.0474 4.01053 9.96631 3.74979Z" fill="#F5C74D"/>
<path id="Vector_2" d="M23.9663 3.74979C23.8852 3.48838 23.6701 3.29901 23.411 3.25935L20.7865 2.85961L19.6126 0.369405C19.381 -0.123135 18.612 -0.123135 18.3804 0.369405L17.2066 2.85961L14.5883 3.25935C14.3292 3.2989 14.1141 3.48904 14.0337 3.74979C13.9526 4.01119 14.0206 4.29713 14.2083 4.48793L16.1065 6.42152L15.6591 9.15811C15.6151 9.42813 15.721 9.7018 15.9326 9.86311C16.1449 10.0238 16.4253 10.0446 16.6569 9.91714L18.9963 8.62447L21.3425 9.91714C21.4429 9.9726 21.5529 10 21.6621 10C21.8043 10 21.9466 9.95393 22.0676 9.86322C22.2793 9.70114 22.3851 9.42824 22.3411 9.15822L21.8937 6.42163L23.7919 4.48804C23.9794 4.29779 24.0474 4.01053 23.9663 3.74979Z" fill="#F5C74D"/>
<path id="Vector_3" d="M37.9663 3.74979C37.8852 3.48838 37.6701 3.29901 37.411 3.25935L34.7865 2.85961L33.6126 0.369405C33.381 -0.123135 32.612 -0.123135 32.3804 0.369405L31.2066 2.85961L28.5883 3.25935C28.3292 3.2989 28.1141 3.48904 28.0337 3.74979C27.9526 4.01119 28.0206 4.29713 28.2083 4.48793L30.1065 6.42152L29.6591 9.15811C29.6151 9.42813 29.721 9.7018 29.9326 9.86311C30.1449 10.0238 30.4253 10.0446 30.6569 9.91714L32.9963 8.62447L35.3425 9.91714C35.4429 9.9726 35.5529 10 35.6621 10C35.8043 10 35.9466 9.95393 36.0676 9.86322C36.2793 9.70114 36.3851 9.42825 36.3411 9.15822L35.8937 6.42163L37.7919 4.48804C37.9794 4.29779 38.0474 4.01053 37.9663 3.74979Z" fill="#F5C74D"/>
<path id="Vector_4" d="M51.9663 3.74979C51.8852 3.48838 51.6701 3.29901 51.411 3.25935L48.7865 2.85961L47.6126 0.369405C47.381 -0.123135 46.612 -0.123135 46.3804 0.369405L45.2066 2.85961L42.5883 3.25935C42.3292 3.2989 42.1141 3.48904 42.0337 3.74979C41.9526 4.01119 42.0206 4.29713 42.2083 4.48793L44.1065 6.42152L43.6591 9.15811C43.6151 9.42813 43.721 9.7018 43.9326 9.86311C44.1449 10.0238 44.4253 10.0446 44.6569 9.91714L46.9963 8.62447L49.3425 9.91714C49.4429 9.9726 49.5529 10 49.6621 10C49.8043 10 49.9466 9.95393 50.0676 9.86322C50.2793 9.70114 50.3851 9.42825 50.3411 9.15822L49.8937 6.42163L51.7919 4.48804C51.9794 4.29779 52.0474 4.01053 51.9663 3.74979Z" fill="#F5C74D"/>
<path id="Vector_5" d="M65.9663 3.74979C65.8852 3.48838 65.6701 3.29901 65.411 3.25935L62.7865 2.85961L61.6126 0.369405C61.381 -0.123135 60.612 -0.123135 60.3804 0.369405L59.2066 2.85961L56.5883 3.25935C56.3292 3.2989 56.1141 3.48904 56.0337 3.74979C55.9526 4.01119 56.0206 4.29713 56.2083 4.48793L58.1065 6.42152L57.6591 9.15811C57.6151 9.42813 57.721 9.7018 57.9326 9.86311C58.1449 10.0238 58.4253 10.0446 58.6569 9.91714L60.9963 8.62447L63.3425 9.91714C63.4429 9.9726 63.5529 10 63.6621 10C63.8043 10 63.9466 9.95393 64.0676 9.86322C64.2793 9.70114 64.3851 9.42825 64.3411 9.15822L63.8937 6.42163L65.7919 4.48804C65.9794 4.29779 66.0474 4.01053 65.9663 3.74979Z" fill="#F5C74D"/>
</g>
</svg>
